HIERARCHY
ROOT Hips
{
  OFFSET 0.687513 137.715 -0.175746
  CHANNELS 6 Xposition Yposition Zposition Zrotation Xrotation Yrotation
  JOINT Spine
  {
    OFFSET 0 10.1816 0.1315
    CHANNELS 6 Xposition Yposition Zposition Zrotation Xrotation Yrotation
    JOINT Spine1
    {
      OFFSET 0 10.0835 -1.0008
      CHANNELS 6 Xposition Yposition Zposition Zrotation Xrotation Yrotation
      JOINT Spine2
      {
        OFFSET 0 9.1 -1.3734
        CHANNELS 6 Xposition Yposition Zposition Zrotation Xrotation Yrotation
        JOINT Neck
        {
          OFFSET 0 16.6717 -2.5162
          CHANNELS 6 Xposition Yposition Zposition Zrotation Xrotation Yrotation
          JOINT Head
          {
            OFFSET 0 9.6179 1.685
            CHANNELS 6 Xposition Yposition Zposition Zrotation Xrotation Yrotation
            JOINT HeadTop_End
            {
              OFFSET 0 17.8152 2.585
              CHANNELS 6 Xposition Yposition Zposition Zrotation Xrotation Yrotation
              End Site
              {
                OFFSET 0 0 0
              }
            }
            JOINT LeftEye
            {
              OFFSET 3.0676 6.4095 9.2836
              CHANNELS 6 Xposition Yposition Zposition Zrotation Xrotation Yrotation
              End Site
              {
                OFFSET 0 0 0
              }
            }
            JOINT RightEye
            {
              OFFSET -3.0676 6.4095 9.2835
              CHANNELS 6 Xposition Yposition Zposition Zrotation Xrotation Yrotation
              End Site
              {
                OFFSET 0 0 0
              }
            }
          }
        }
        JOINT LeftShoulder
        {
          OFFSET 4.5704 10.946 -2.628
          CHANNELS 6 Xposition Yposition Zposition Zrotation Xrotation Yrotation
          JOINT LeftArm
          {
            OFFSET 10.5924 -0.5246 -2.2321
            CHANNELS 6 Xposition Yposition Zposition Zrotation Xrotation Yrotation
            JOINT LeftForeArm
            {
              OFFSET 27.8415 -0.0001 0
              CHANNELS 6 Xposition Yposition Zposition Zrotation Xrotation Yrotation
              JOINT LeftHand
              {
                OFFSET 28.3288 0 0
                CHANNELS 6 Xposition Yposition Zposition Zrotation Xrotation Yrotation
                JOINT LeftHandThumb1
                {
                  OFFSET 2.4661 -1.575 2.6824
                  CHANNELS 6 Xposition Yposition Zposition Zrotation Xrotation Yrotation
                  JOINT LeftHandThumb2
                  {
                    OFFSET 3.2298 -1.8647 1.8647
                    CHANNELS 6 Xposition Yposition Zposition Zrotation Xrotation Yrotation
                    JOINT LeftHandThumb3
                    {
                      OFFSET 2.6526 -1.5315 1.5315
                      CHANNELS 6 Xposition Yposition Zposition Zrotation Xrotation Yrotation
                      End Site
                      {
                        OFFSET 1.9546 -1.1285 1.1285
                      }
                    }
                  }
                }
                JOINT LeftHandIndex1
                {
                  OFFSET 9.1093 -0.5171 2.2601
                  CHANNELS 6 Xposition Yposition Zposition Zrotation Xrotation Yrotation
                  JOINT LeftHandIndex2
                  {
                    OFFSET 3.6764 0 0
                    CHANNELS 6 Xposition Yposition Zposition Zrotation Xrotation Yrotation
                    JOINT LeftHandIndex3
                    {
                      OFFSET 2.8831 0 0
                      CHANNELS 6 Xposition Yposition Zposition Zrotation Xrotation Yrotation
                      End Site
                      {
                        OFFSET 2.3927 0 0
                      }
                    }
                  }
                }
                JOINT LeftHandMiddle1
                {
                  OFFSET 9.5334 0 0
                  CHANNELS 6 Xposition Yposition Zposition Zrotation Xrotation Yrotation
                  JOINT LeftHandMiddle2
                  {
                    OFFSET 3.6982 0 0
                    CHANNELS 6 Xposition Yposition Zposition Zrotation Xrotation Yrotation
                    JOINT LeftHandMiddle3
                    {
                      OFFSET 2.9509 0 0
                      CHANNELS 6 Xposition Yposition Zposition Zrotation Xrotation Yrotation
                      End Site
                      {
                        OFFSET 2.8339 0 0
                      }
                    }
                  }
                }
                JOINT LeftHandRing1
                {
                  OFFSET 9.1045 -0.0439 -1.8651
                  CHANNELS 6 Xposition Yposition Zposition Zrotation Xrotation Yrotation
                  JOINT LeftHandRing2
                  {
                    OFFSET 3.154 0 0
                    CHANNELS 6 Xposition Yposition Zposition Zrotation Xrotation Yrotation
                    JOINT LeftHandRing3
                    {
                      OFFSET 2.9377 0 0
                      CHANNELS 6 Xposition Yposition Zposition Zrotation Xrotation Yrotation
                      End Site
                      {
                        OFFSET 2.6475 0 0
                      }
                    }
                  }
                }
                JOINT LeftHandPinky1
                {
                  OFFSET 8.0778 -0.4887 -3.8061
                  CHANNELS 6 Xposition Yposition Zposition Zrotation Xrotation Yrotation
                  JOINT LeftHandPinky2
                  {
                    OFFSET 3.6 0 0
                    CHANNELS 6 Xposition Yposition Zposition Zrotation Xrotation Yrotation
                    JOINT LeftHandPinky3
                    {
                      OFFSET 2.1142 0 0
                      CHANNELS 6 Xposition Yposition Zposition Zrotation Xrotation Yrotation
                      End Site
                      {
                        OFFSET 1.9757 0 0
                      }
                    }
                  }
                }
              }
            }
          }
        }
        JOINT RightShoulder
        {
          OFFSET -4.57 10.9462 -2.628
          CHANNELS 6 Xposition Yposition Zposition Zrotation Xrotation Yrotation
          JOINT RightArm
          {
            OFFSET -10.5928 -0.5248 -2.2321
            CHANNELS 6 Xposition Yposition Zposition Zrotation Xrotation Yrotation
            JOINT RightForeArm
            {
              OFFSET -27.8415 0 0
              CHANNELS 6 Xposition Yposition Zposition Zrotation Xrotation Yrotation
              JOINT RightHand
              {
                OFFSET -28.3288 0 0.0001
                CHANNELS 6 Xposition Yposition Zposition Zrotation Xrotation Yrotation
                JOINT RightHandPinky1
                {
                  OFFSET -8.0767 -0.4885 -3.806
                  CHANNELS 6 Xposition Yposition Zposition Zrotation Xrotation Yrotation
                  JOINT RightHandPinky2
                  {
                    OFFSET -3.6 0 0.0001
                    CHANNELS 6 Xposition Yposition Zposition Zrotation Xrotation Yrotation
                    JOINT RightHandPinky3
                    {
                      OFFSET -2.1142 0 0
                      CHANNELS 6 Xposition Yposition Zposition Zrotation Xrotation Yrotation
                      End Site
                      {
                        OFFSET -1.9757 0 0
                      }
                    }
                  }
                }
                JOINT RightHandRing1
                {
                  OFFSET -9.1036 -0.0439 -1.8651
                  CHANNELS 6 Xposition Yposition Zposition Zrotation Xrotation Yrotation
                  JOINT RightHandRing2
                  {
                    OFFSET -3.154 0 0
                    CHANNELS 6 Xposition Yposition Zposition Zrotation Xrotation Yrotation
                    JOINT RightHandRing3
                    {
                      OFFSET -2.9377 0 0
                      CHANNELS 6 Xposition Yposition Zposition Zrotation Xrotation Yrotation
                      End Site
                      {
                        OFFSET -2.6475 0 0
                      }
                    }
                  }
                }
                JOINT RightHandMiddle1
                {
                  OFFSET -9.5325 0 0
                  CHANNELS 6 Xposition Yposition Zposition Zrotation Xrotation Yrotation
                  JOINT RightHandMiddle2
                  {
                    OFFSET -3.6982 0 0
                    CHANNELS 6 Xposition Yposition Zposition Zrotation Xrotation Yrotation
                    JOINT RightHandMiddle3
                    {
                      OFFSET -2.9509 0 0
                      CHANNELS 6 Xposition Yposition Zposition Zrotation Xrotation Yrotation
                      End Site
                      {
                        OFFSET -2.8339 0 0.0001
                      }
                    }
                  }
                }
                JOINT RightHandIndex1
                {
                  OFFSET -9.1083 -0.5168 2.2601
                  CHANNELS 6 Xposition Yposition Zposition Zrotation Xrotation Yrotation
                  JOINT RightHandIndex2
                  {
                    OFFSET -3.6764 0 0
                    CHANNELS 6 Xposition Yposition Zposition Zrotation Xrotation Yrotation
                    JOINT RightHandIndex3
                    {
                      OFFSET -2.8831 0 0
                      CHANNELS 6 Xposition Yposition Zposition Zrotation Xrotation Yrotation
                      End Site
                      {
                        OFFSET -2.3927 0 0
                      }
                    }
                  }
                }
                JOINT RightHandThumb1
                {
                  OFFSET -2.4648 -1.5727 2.6826
                  CHANNELS 6 Xposition Yposition Zposition Zrotation Xrotation Yrotation
                  JOINT RightHandThumb2
                  {
                    OFFSET -3.2298 -1.8647 1.8647
                    CHANNELS 6 Xposition Yposition Zposition Zrotation Xrotation Yrotation
                    JOINT RightHandThumb3
                    {
                      OFFSET -2.6526 -1.5314 1.5314
                      CHANNELS 6 Xposition Yposition Zposition Zrotation Xrotation Yrotation
                      End Site
                      {
                        OFFSET -1.9546 -1.1285 1.1285
                      }
                    }
                  }
                }
              }
            }
          }
        }
      }
    }
  }
  JOINT LeftUpLeg
  {
    OFFSET 8.2078 -6.7517 -1.5996
    CHANNELS 6 Xposition Yposition Zposition Zrotation Xrotation Yrotation
    JOINT LeftLeg
    {
      OFFSET 0 -44.3705 0.2846
      CHANNELS 6 Xposition Yposition Zposition Zrotation Xrotation Yrotation
      JOINT LeftFoot
      {
        OFFSET 0 -44.4279 -2.9822
        CHANNELS 6 Xposition Yposition Zposition Zrotation Xrotation Yrotation
        JOINT LeftToeBase
        {
          OFFSET 0 -8.7287 10.7106
          CHANNELS 6 Xposition Yposition Zposition Zrotation Xrotation Yrotation
          End Site
          {
            OFFSET 0 -0.0007 9.2781
          }
        }
      }
    }
  }
  JOINT RightUpLeg
  {
    OFFSET -8.2078 -6.7517 -1.5996
    CHANNELS 6 Xposition Yposition Zposition Zrotation Xrotation Yrotation
    JOINT RightLeg
    {
      OFFSET 0 -44.3705 0.2862
      CHANNELS 6 Xposition Yposition Zposition Zrotation Xrotation Yrotation
      JOINT RightFoot
      {
        OFFSET 0 -44.4277 -2.9838
        CHANNELS 6 Xposition Yposition Zposition Zrotation Xrotation Yrotation
        JOINT RightToeBase
        {
          OFFSET 0 -8.7287 10.7106
          CHANNELS 6 Xposition Yposition Zposition Zrotation Xrotation Yrotation
          End Site
          {
            OFFSET 0 -0.0007 9.2781
          }
        }
      }
    }
  }
}
MOTION
Frames:	4
Frame Time:	0.0333333
0.687513 137.715 -0.175746 0.916824 -14.55 -6.62578 8.88178e-016 10.1816 0.1315 0.423031 33.1151 -9.20214 5.55112e-017 10.0835 -1.0008 0.795404 -8.52685 -1.39154 0 9.1 -1.3734 1.06153 -8.50001 -1.35994 8.88178e-016 16.6717 -2.5162 -5.11842 14.9043 3.72023 0 9.6179 1.685 -9.7108 -2.01295 15.0758 -3.55271e-015 17.8152 2.585 -1.59028e-015 0 3.97569e-016 3.0676 6.4095 9.2836 -1.59028e-015 0 3.97569e-016 -3.0676 6.4095 9.2835 -1.59028e-015 0 3.97569e-016 4.5704 10.946 -2.628 16.0703 0.405267 10.7289 10.5924 -0.5246 -2.2321 -68.6665 -32.3787 -15.1569 27.8415 -0.0001 -1.42109e-014 -0.000177124 9.09381e-006 -60.5795 28.3288 0 2.84217e-014 42.8391 34.961 -6.93054 2.4661 -1.575 2.6824 1.13334 3.40452 9.05112 3.2298 -1.8647 1.8647 -1.05081 1.21137 -0.18751 2.6526 -1.5315 1.5315 2.89189 -1.86397 -0.520534 9.1093 -0.5171 2.2601 -33.8161 -1.16522 4.97135 3.6764 -2.84217e-014 0 -1.87695e-005 1.71376e-006 4.88015e-006 2.8831 -5.68434e-014 0 4.64596 -0.0226359 -0.557943 9.5334 0 -1.42109e-014 -27.151 -0.756631 4.7073 3.6982 0 -2.84217e-014 -5.14005 -0.0276999 0.61714 2.9509 2.84217e-014 -1.42109e-014 2.5398 -0.00677311 -0.305256 9.1045 -0.0439 -1.8651 -26.7733 -0.7332 5.46699 3.154 -2.84217e-014 -1.42109e-014 -5.05928 -0.0268306 0.607461 2.9377 5.68434e-014 0 2.2098 -0.00513151 -0.265624 8.0778 -0.4887 -3.8061 -32.0561 -0.986093 11.4687 3.6 2.84217e-014 1.42109e-014 -0.487963 0.0165597 -4.0569 2.1142 0 -1.42109e-014 3.55143 -0.0132259 -0.426701 -4.57 10.9462 -2.628 -2.92667 0.136929 -1.17557 -10.5928 -0.5248 -2.2321 37.597 -45.043 -36.6873 -27.8415 0 -3.55271e-015 -6.88544e-005 -2.46082e-007 84.3305 -28.3288 0 0.0001 -34.3632 31.547 -8.09432 -8.0767 -0.4885 -3.806 -13.6899 -0.0533053 -10.1304 -3.6 2.84217e-014 0.0001 31.7704 -1.04237 -3.6633 -2.1142 0 0 11.6453 -0.143196 -1.40412 -9.1036 -0.0439 -1.8651 -0.336321 0.0592052 -7.50312 -3.154 1.42109e-014 1.42109e-014 17.9759 -0.339635 -2.14707 -2.9377 -2.84217e-014 0 9.01789 -1.59841 -1.09417 -9.5325 -1.42109e-014 1.42109e-014 13.1489 -0.156153 -6.59644 -3.6982 2.84217e-014 -1.42109e-014 10.487 -0.116192 -1.26607 -2.9509 -2.84217e-014 1.42109e-014 2.89027 -0.911178 -0.353463 -9.1083 -0.5168 2.2601 29.4477 -0.885234 -7.10141 -3.6764 0 1.42109e-014 0.000111174 -1.03917e-005 -8.08405e-006 -2.8831 -2.84217e-014 1.42109e-014 -3.53871 -0.0132585 0.429314 -2.4648 -1.5727 2.6826 7.59069 6.75368 -9.52241 -3.2298 -1.8647 1.8647 1.72472 1.5763 0.141208 -2.6526 -1.5314 1.5314 -2.22619 -1.77323 0.877918 8.2078 -6.7517 -1.5996 7.24653 -3.01381 -2.06818 0 -44.3705 0.2846 -6.59752 37.8635 13.5995 0 -44.4279 -2.9822 -8.48591 21.3737 6.4906 -7.10543e-015 -8.7287 10.7106 4.43997e-006 -1.37499 -3.94723e-006 -8.2078 -6.7517 -1.5996 -0.639147 -55.7261 -2.35321 4.44089e-016 -44.3705 0.2862 54.3129 84.9101 -58.607 0 -44.4277 -2.9838 5.97869 -7.57309 0.112993 3.55271e-015 -8.7287 10.7106 1.92819e-006 -0.558827 -2.16291e-006 
0.629938 137.88 -0.233028 0.613457 -14.5064 -6.63668 0 10.1816 0.1315 0.814634 33.3413 -9.48253 0 10.0835 -1.0008 0.716646 -8.81801 -1.3993 2.22045e-016 9.1 -1.3734 0.998913 -8.79089 -1.37974 4.44089e-016 16.6717 -2.5162 -5.05734 15.0306 3.76929 1.77636e-015 9.6179 1.685 -8.90898 -1.47917 15.0587 -3.55271e-015 17.8152 2.585 1.88845e-015 0 3.97569e-016 3.0676 6.4095 9.2836 1.88845e-015 0 3.97569e-016 -3.0676 6.4095 9.2835 1.88845e-015 0 3.97569e-016 4.5704 10.946 -2.628 15.9343 0.497886 12.6299 10.5924 -0.5246 -2.2321 -71.4248 -29.8844 -16.0282 27.8415 -0.0001 -1.42109e-014 -0.000190925 -7.29839e-006 -58.316 28.3288 1.42109e-014 0 43.8414 34.3358 -7.86084 2.4661 -1.575 2.6824 0.855849 3.56762 9.16608 3.2298 -1.8647 1.8647 -1.05079 1.21144 -0.187546 2.6526 -1.5315 1.5315 2.92402 -1.99647 -0.726723 9.1093 -0.5171 2.2601 -33.7897 -1.16317 5.07983 3.6764 0 0 -1.87695e-005 1.71376e-006 4.88015e-006 2.8831 2.84217e-014 -1.42109e-014 4.66481 -0.0228235 -0.560209 9.5334 0 0 -27.1624 -0.756956 4.79271 3.6982 -2.84217e-014 0 -5.14385 -0.0277408 0.617585 2.9509 0 1.42109e-014 2.54474 -0.00679074 -0.305834 9.1045 -0.0439 -1.8651 -26.8258 -0.735658 5.54924 3.154 -2.84217e-014 -1.42109e-014 -5.07056 -0.0269554 0.608796 2.9377 0 0 2.20121 -0.00508522 -0.264573 8.0778 -0.4887 -3.8061 -32.1614 -0.991398 11.5662 3.6 0 1.42109e-014 -0.487963 0.0165597 -4.0569 2.1142 -2.84217e-014 1.42109e-014 3.53151 -0.0130792 -0.424306 -4.57 10.9462 -2.628 -3.19439 0.143869 -1.04008 -10.5928 -0.5248 -2.2321 32.5866 -44.6986 -39.8051 -27.8415 0 -7.10543e-015 -8.33798e-005 5.7254e-006 87.5207 -28.3288 -1.42109e-014 0.0001 -33.1771 30.678 -10.7988 -8.0767 -0.4885 -3.806 -15.1401 -0.110916 -9.38114 -3.6 1.42109e-014 0.0001 33.2937 -1.14197 -3.81955 -2.1142 0 -1.42109e-014 13.3025 -0.186661 -1.60061 -9.1036 -0.0439 -1.8651 -0.916504 0.0545333 -7.17921 -3.154 0 1.42109e-014 18.7273 -0.368374 -2.23372 -2.9377 -2.84217e-014 0 10.0792 -1.55514 -1.22149 -9.5325 1.42109e-014 1.42109e-014 13.3163 -0.160625 -6.63375 -3.6982 2.84217e-014 1.42109e-014 10.9078 -0.12568 -1.3163 -2.9509 2.84217e-014 0 3.35859 -0.841406 -0.410265 -9.1083 -0.5168 2.2601 30.3882 -0.939967 -7.48898 -3.6764 2.84217e-014 0 2.95221e-005 -2.50363e-006 -2.33186e-006 -2.8831 0 -1.42109e-014 -3.58896 -0.0136355 0.435406 -2.4648 -1.5727 2.6826 8.64987 5.4167 -6.09207 -3.2298 -1.8647 1.8647 0.613345 3.23407 -4.75215 -2.6526 -1.5314 1.5314 -2.19973 -1.68234 0.735933 8.2078 -6.7517 -1.5996 8.05901 -3.50611 -1.71981 0 -44.3705 0.2846 -6.99359 42.5029 14.4479 0 -44.4279 -2.9822 -7.5084 21.9168 4.30509 -3.55271e-015 -8.7287 10.7106 1.92407e-006 -1.54861 -2.08397e-006 -8.2078 -6.7517 -1.5996 0.575674 -55.4229 -1.40438 -1.77636e-015 -44.3705 0.2862 32.4532 81.3658 -37.2308 1.77636e-015 -44.4277 -2.9838 5.85443 -7.61094 0.112786 3.55271e-015 -8.7287 10.7106 1.69462e-006 -0.50716 1.87417e-006 
0.596483 138.045 -0.321069 0.284275 -14.4073 -6.59453 0 10.1816 0.1315 1.24262 33.2761 -9.63646 0 10.0835 -1.0008 0.640165 -8.88552 -1.40409 -1.11022e-016 9.1 -1.3734 0.926661 -8.85944 -1.39186 0 16.6717 -2.5162 -4.96955 15.1321 3.78113 -1.77636e-015 9.6179 1.685 -8.2913 -1.14204 14.9815 0 17.8152 2.585 -9.93923e-017 0 3.97569e-016 3.0676 6.4095 9.2836 -9.93923e-017 0 3.97569e-016 -3.0676 6.4095 9.2835 -9.93923e-017 0 3.97569e-016 4.5704 10.946 -2.628 15.7425 0.555875 14.0836 10.5924 -0.5246 -2.2321 -73.9023 -28.037 -16.1487 27.8415 -0.0001 1.42109e-014 -0.00018624 4.74254e-006 -56.265 28.3288 0 0 44.9477 33.6796 -8.8431 2.4661 -1.575 2.6824 0.685124 3.60118 9.08878 3.2298 -1.8647 1.8647 -1.05078 1.21147 -0.187541 2.6526 -1.5315 1.5315 2.90155 -1.9039 -0.58259 9.1093 -0.5171 2.2601 -33.8797 -1.16952 4.9691 3.6764 0 1.42109e-014 -1.87695e-005 1.71376e-006 4.88015e-006 2.8831 -2.84217e-014 0 4.64429 -0.0226197 -0.557747 9.5334 0 1.42109e-014 -27.2644 -0.763046 4.66951 3.6982 0 0 -5.16034 -0.0279235 0.619556 2.9509 0 0 2.52962 -0.00669725 -0.303998 9.1045 -0.0439 -1.8651 -26.9638 -0.744054 5.38387 3.154 2.84217e-014 -1.42109e-014 -5.09309 -0.0272007 0.611515 2.9377 0 0 2.19071 -0.00503472 -0.263309 8.0778 -0.4887 -3.8061 -32.3661 -1.00894 11.32 3.6 -2.84217e-014 0 -0.487963 0.0165597 -4.0569 2.1142 0 0 3.52932 -0.0130621 -0.424042 -4.57 10.9462 -2.628 -3.54781 0.150378 -0.848986 -10.5928 -0.5248 -2.2321 27.9419 -44.6221 -42.1453 -27.8415 -1.42109e-014 0 0.00100709 -8.53038e-006 90.1918 -28.3288 1.42109e-014 0.0001 -31.8214 29.7267 -13.134 -8.0767 -0.4885 -3.806 -16.4645 -0.159572 -9.01564 -3.6 0 0.0001 34.2574 -1.20712 -3.91702 -2.1142 0 1.42109e-014 14.4681 -0.220634 -1.73802 -9.1036 -0.0439 -1.8651 -1.33549 0.0518918 -7.01931 -3.154 1.42109e-014 2.84217e-014 19.1944 -0.386806 -2.28738 -2.9377 2.84217e-014 2.84217e-014 10.7968 -1.56562 -1.30746 -9.5325 2.84217e-014 2.84217e-014 13.719 -0.172376 -6.65003 -3.6982 0 0 11.2268 -0.133117 -1.3543 -2.9509 0 0 3.65337 -0.828626 -0.44604 -9.1083 -0.5168 2.2601 31.6908 -1.02132 -7.66282 -3.6764 0 0 4.98986e-005 -6.04558e-006 -9.85901e-006 -2.8831 0 0 -3.69398 -0.0144501 0.448123 -2.4648 -1.5727 2.6826 9.99082 4.09759 -2.56273 -3.2298 -1.8647 1.8647 -0.691375 5.718 -11.3004 -2.6526 -1.5314 1.5314 -2.18189 -1.45809 0.349304 8.2078 -6.7517 -1.5996 8.84241 -4.42389 -1.50085 -7.10543e-015 -44.3705 0.2846 -7.5209 47.1575 15.1683 3.55271e-015 -44.4279 -2.9822 -7.13466 22.4722 2.62085 -3.55271e-015 -8.7287 10.7106 -3.46489e-006 -1.57012 -2.55296e-006 -8.2078 -6.7517 -1.5996 1.69321 -54.4375 -0.377358 1.77636e-015 -44.3705 0.2862 22.9253 76.6141 -27.8931 1.77636e-015 -44.4277 -2.9838 6.1754 -7.44165 0.106362 0 -8.7287 10.7106 7.39544e-006 -0.580303 -4.57826e-006 
0.589083 138.175 -0.434588 -0.0939539 -14.251 -6.49713 0 10.1816 0.1315 1.69275 32.9214 -9.65342 1.249e-016 10.0835 -1.0008 0.585925 -8.7414 -1.41324 -1.11022e-016 9.1 -1.3734 0.86234 -8.71767 -1.39962 0 16.6717 -2.5162 -4.87395 15.204 3.7578 0 9.6179 1.685 -7.75392 -0.938534 14.7664 0 17.8152 2.585 -8.94531e-016 0 -0 3.0676 6.4095 9.2836 -8.94531e-016 0 -0 -3.0676 6.4095 9.2835 -8.94531e-016 0 -0 4.5704 10.946 -2.628 15.4768 0.593643 15.3386 10.5924 -0.5246 -2.2321 -76.057 -26.4411 -15.7907 27.8415 -0.0001 0 -0.000212261 -9.03229e-006 -54.2631 28.3288 0 2.84217e-014 46.1744 32.9284 -9.77616 2.4661 -1.575 2.6824 0.686993 3.50273 8.87483 3.2298 -1.8647 1.8647 -1.05088 1.21125 -0.187427 2.6526 -1.5315 1.5315 2.83305 -1.62648 -0.150335 9.1093 -0.5171 2.2601 -34.0048 -1.17866 4.61287 3.6764 0 0 -1.87695e-005 1.71376e-006 4.88015e-006 2.8831 0 1.42109e-014 4.5988 -0.022171 -0.552288 9.5334 1.42109e-014 0 -27.3753 -0.770193 4.35071 3.6982 -2.84217e-014 0 -5.17451 -0.0280856 0.621248 2.9509 0 1.42109e-014 2.5056 -0.00658282 -0.301126 9.1045 -0.0439 -1.8651 -27.0862 -0.752342 5.02749 3.154 0 -1.42109e-014 -5.10905 -0.027362 0.613415 2.9377 2.84217e-014 0 2.18579 -0.00501451 -0.262721 8.0778 -0.4887 -3.8061 -32.5272 -1.02706 10.8435 3.6 2.84217e-014 0 -0.487963 0.0165597 -4.0569 2.1142 0 0 3.54597 -0.0131918 -0.426033 -4.57 10.9462 -2.628 -4.00353 0.152785 -0.622052 -10.5928 -0.5248 -2.2321 23.7152 -44.8921 -43.7198 -27.8415 2.84217e-014 0 -1.52726e-005 6.48e-007 92.4339 -28.3288 0 0.0001 -30.2655 28.8715 -15.1253 -8.0767 -0.4885 -3.806 -17.4997 -0.186888 -9.30157 -3.6 -2.13163e-014 0.0001 34.5986 -1.23057 -3.95128 -2.1142 0 0 15.0607 -0.23897 -1.80761 -9.1036 -0.0439 -1.8651 -1.61121 0.0549931 -7.24613 -3.154 1.42109e-014 -1.42109e-014 19.3447 -0.392836 -2.30462 -2.9377 0 0 11.1242 -1.6447 -1.34688 -9.5325 0 0 14.1504 -0.18315 -6.87393 -3.6982 0 0 11.3953 -0.137122 -1.37437 -2.9509 -2.84217e-014 0 3.75834 -0.866146 -0.458817 -9.1083 -0.5168 2.2601 32.9161 -1.09987 -7.91588 -3.6764 0 1.42109e-014 9.62802e-005 -7.99648e-006 -1.69417e-005 -2.8831 0 1.42109e-014 -3.83202 -0.0155451 0.46485 -2.4648 -1.5727 2.6826 11.1764 3.18582 -0.0209781 -3.2298 -1.8647 1.8647 -1.61622 7.84598 -16.6235 -2.6526 -1.5314 1.5314 -2.17434 -1.20025 -0.104507 8.2078 -6.7517 -1.5996 9.57921 -5.8275 -1.26868 0 -44.3705 0.2846 -8.16072 51.9338 15.2182 0 -44.4279 -2.9822 -7.32473 22.8005 1.91416 -3.55271e-015 -8.7287 10.7106 4.39407e-007 -1.39756 2.85643e-006 -8.2078 -6.7517 -1.5996 2.71786 -52.7508 0.545617 -7.77156e-016 -44.3705 0.2862 17.3634 71.0697 -22.3451 0 -44.4277 -2.9838 6.87446 -7.21461 0.0985226 0 -8.7287 10.7106 -2.91192e-006 -0.639662 3.54477e-006 
